<svg width="22" height="28" viewBox="0 0 22 28" fill="none" xmlns="http://www.w3.org/2000/svg">
<path d="M8.5 1H2.5C1.672 1 1 1.672 1 2.5V25.5C1 26.328 1.672 27 2.5 27H19.5C20.328 27 21 26.328 21 25.5V13.5M8.5 1H9C12.1826 1 15.2348 2.26428 17.4853 4.51472C19.7357 6.76516 21 9.8174 21 13V13.5M8.5 1C9.69347 1 10.8381 1.47411 11.682 2.31802C12.5259 3.16193 13 4.30653 13 5.5V7.5C13 8.328 13.672 9 14.5 9H16.5C17.6935 9 18.8381 9.47411 19.682 10.318C20.5259 11.1619 21 12.3065 21 13.5M7 18L10 21L15 14" stroke="#1E90FF" stroke-width="2" stroke-linecap="round" stroke-linejoin="round"/>
</svg>
